<svg xmlns="http://www.w3.org/2000/svg" width="566" height="168" viewBox="0 0 566 168" role="img" aria-label="Play time: 32 hours over 22 commits, last played 14 Sep">
  <style>
    .card { fill: #0d1117; stroke: #30363d }
    text { font-family: -apple-system, BlinkMacSystemFont, "Segoe UI", Helvetica, Arial, sans-serif }
    .label { font-size: 11px; letter-spacing: 1.7px; fill: #8b949e }
    .stat { font-size: 16px; font-weight: 600; letter-spacing: normal; fill: #e6edf3 }
    .note { font-size: 12px; fill: #8b949e }
    .axis { font-size: 10px; fill: #6e7681 }
    .bar { fill: #388bfd }
    .bar-quiet { fill: #21262d }
  </style>
  <rect class="card" x="0.5" y="0.5" width="565" height="167" rx="8"/>
  <text class="label" x="24" y="40">PLAY TIME</text>
  <text class="stat" x="24" y="62">32 hours</text>
  <text class="label" x="542" y="40" text-anchor="end">LAST PLAYED <tspan class="stat">14 Sep</tspan></text>
  <text class="note" x="542" y="62" text-anchor="end">32 hours in the last 14 days   ·   13 sittings   ·   22 commits</text>
  <rect class="bar" x="24.0" y="105.9" width="59" height="28.1" rx="1.5"/>
  <rect class="bar" x="89.6" y="127.5" width="59" height="6.5" rx="1.5"/>
  <rect class="bar" x="155.1" y="124.7" width="59" height="9.3" rx="1.5"/>
  <rect class="bar" x="220.7" y="115.5" width="59" height="18.5" rx="1.5"/>
  <rect class="bar" x="286.3" y="88.0" width="59" height="46.0" rx="1.5"/>
  <rect class="bar" x="351.9" y="112.4" width="59" height="21.6" rx="1.5"/>
  <rect class="bar" x="417.4" y="124.7" width="59" height="9.3" rx="1.5"/>
  <rect class="bar" x="483.0" y="124.7" width="59" height="9.3" rx="1.5"/>
  <text class="axis" x="24" y="152">7 Sep 2026</text>
  <text class="axis" x="283" y="152" text-anchor="middle">8 days</text>
  <text class="axis" x="542" y="152" text-anchor="end">14 Sep 2026</text>
</svg>
